<svg width="256" height="256" viewBox="0 0 256 256" fill="none" xmlns="http://www.w3.org/2000/svg">
<path d="M220 128C220 152.4 210.307 175.8 193.054 193.054C175.8 210.307 152.4 220 128 220C103.6 220 80.1995 210.307 62.9462 193.054C45.6928 175.8 36 152.4 36 128C36 103.6 45.6928 80.1995 62.9462 62.9462C80.1995 45.6928 103.6 36 128 36C152.4 36 175.8 45.6928 193.054 62.9462C210.307 80.1995 220 103.6 220 128Z" fill="#00C896"/>
<path d="M173.92 91.77V80.37H161.96C152.052 73.2844 140.171 69.486 127.99 69.51C115.813 69.4908 103.936 73.2888 94.03 80.37H82.08V91.77C73.9159 102.08 69.4819 114.849 69.5 128C69.5 147.96 79.5 165.58 94.75 176.13H94.76C95.72 176.78 96.72 177.4 97.76 177.95L127.99 193.95L158.21 177.95C159.31 177.36 160.37 176.71 161.37 176.01H161.39C169.138 170.628 175.467 163.45 179.836 155.089C184.205 146.728 186.485 137.434 186.48 128C186.509 114.851 182.081 102.08 173.92 91.77Z" fill="white"/>
<path d="M171.5 152.03V82.96H84.5V152.03C84.4989 156.952 85.8389 161.782 88.3759 165.999C90.913 170.217 94.5513 173.664 98.9 175.97L128 191.37L157.09 175.97C161.439 173.664 165.077 170.217 167.614 165.999C170.151 161.782 171.491 156.952 171.49 152.03H171.5ZM143.67 174.46C143.647 174.082 143.702 173.702 143.831 173.346C143.961 172.99 144.161 172.663 144.421 172.387C144.681 172.111 144.995 171.892 145.343 171.741C145.691 171.591 146.066 171.513 146.445 171.513C146.824 171.513 147.199 171.591 147.547 171.741C147.895 171.892 148.209 172.111 148.469 172.387C148.729 172.663 148.929 172.99 149.059 173.346C149.188 173.702 149.243 174.082 149.22 174.46C149.178 175.167 148.867 175.831 148.351 176.317C147.835 176.803 147.153 177.073 146.445 177.073C145.737 177.073 145.055 176.803 144.539 176.317C144.023 175.831 143.712 175.167 143.67 174.46ZM125.08 183.53C125.08 182.794 125.372 182.088 125.893 181.568C126.413 181.047 127.119 180.755 127.855 180.755C128.591 180.755 129.297 181.047 129.817 181.568C130.338 182.088 130.63 182.794 130.63 183.53C130.63 184.266 130.338 184.972 129.817 185.492C129.297 186.013 128.591 186.305 127.855 186.305C127.119 186.305 126.413 186.013 125.893 185.492C125.372 184.972 125.08 184.266 125.08 183.53ZM116.35 170.98L128 164.7L139.64 171L127.98 177.16L116.34 170.99L116.35 170.98ZM106.57 174.42C106.57 173.684 106.862 172.978 107.383 172.458C107.903 171.937 108.609 171.645 109.345 171.645C110.081 171.645 110.787 171.937 111.307 172.458C111.828 172.978 112.12 173.684 112.12 174.42C112.12 175.156 111.828 175.862 111.307 176.382C110.787 176.903 110.081 177.195 109.345 177.195C108.609 177.195 107.903 176.903 107.383 176.382C106.862 175.862 106.57 175.156 106.57 174.42ZM97.07 147.96L117.18 158.84L105.41 165.19L104.79 164.86C102.456 163.628 100.503 161.782 99.1429 159.52C97.7823 157.259 97.0655 154.669 97.07 152.03V147.96ZM87.98 145.96C87.98 145.224 88.2724 144.518 88.7928 143.998C89.3132 143.477 90.019 143.185 90.755 143.185C91.491 143.185 92.1968 143.477 92.7172 143.998C93.2376 144.518 93.53 145.224 93.53 145.96C93.53 146.696 93.2376 147.402 92.7172 147.922C92.1968 148.443 91.491 148.735 90.755 148.735C90.019 148.735 89.3132 148.443 88.7928 147.922C88.2724 147.402 87.98 146.696 87.98 145.96ZM87.98 127.23C87.98 126.494 88.2724 125.788 88.7928 125.268C89.3132 124.747 90.019 124.455 90.755 124.455C91.491 124.455 92.1968 124.747 92.7172 125.268C93.2376 125.788 93.53 126.494 93.53 127.23C93.53 127.966 93.2376 128.672 92.7172 129.192C92.1968 129.713 91.491 130.005 90.755 130.005C90.019 130.005 89.3132 129.713 88.7928 129.192C88.2724 128.672 87.98 127.966 87.98 127.23ZM87.98 108.51C87.98 107.774 88.2724 107.068 88.7928 106.548C89.3132 106.027 90.019 105.735 90.755 105.735C91.491 105.735 92.1968 106.027 92.7172 106.548C93.2376 107.068 93.53 107.774 93.53 108.51C93.53 109.246 93.2376 109.952 92.7172 110.472C92.1968 110.993 91.491 111.285 90.755 111.285C90.019 111.285 89.3132 110.993 88.7928 110.472C88.2724 109.952 87.98 109.246 87.98 108.51ZM93.61 89.31C93.61 90.0446 93.3182 90.7492 92.7987 91.2687C92.2792 91.7882 91.5746 92.08 90.84 92.08C90.1053 92.08 89.4008 91.7882 88.8813 91.2687C88.3618 90.7492 88.07 90.0446 88.07 89.31C88.07 88.5753 88.3618 87.8708 88.8813 87.3513C89.4008 86.8318 90.1053 86.54 90.84 86.54C91.5746 86.54 92.2792 86.8318 92.7987 87.3513C93.3182 87.8708 93.61 88.5753 93.61 89.31ZM96.65 162.67C96.65 163.406 96.3576 164.112 95.8372 164.632C95.3168 165.153 94.611 165.445 93.875 165.445C93.139 165.445 92.4332 165.153 91.9128 164.632C91.3924 164.112 91.1 163.406 91.1 162.67C91.1 161.934 91.3924 161.228 91.9128 160.708C92.4332 160.187 93.139 159.895 93.875 159.895C94.611 159.895 95.3168 160.187 95.8372 160.708C96.3576 161.228 96.65 161.934 96.65 162.67ZM118.31 89.31C118.31 90.0446 118.018 90.7492 117.499 91.2687C116.979 91.7882 116.275 92.08 115.54 92.08C114.805 92.08 114.101 91.7882 113.581 91.2687C113.062 90.7492 112.77 90.0446 112.77 89.31C112.77 88.574 113.062 87.8682 113.583 87.3478C114.103 86.8274 114.809 86.535 115.545 86.535C116.281 86.535 116.987 86.8274 117.507 87.3478C118.028 87.8682 118.32 88.574 118.32 89.31H118.31ZM143.02 89.31C143.043 89.6884 142.988 90.0675 142.859 90.4239C142.729 90.7804 142.529 91.1066 142.269 91.3826C142.009 91.6586 141.695 91.8785 141.347 92.0288C140.999 92.1791 140.624 92.2567 140.245 92.2567C139.866 92.2567 139.491 92.1791 139.143 92.0288C138.795 91.8785 138.481 91.6586 138.221 91.3826C137.961 91.1066 137.761 90.7804 137.631 90.4239C137.502 90.0675 137.447 89.6884 137.47 89.31C137.512 88.6028 137.823 87.9385 138.339 87.4528C138.855 86.9671 139.537 86.6967 140.245 86.6967C140.953 86.6967 141.635 86.9671 142.151 87.4528C142.667 87.9385 142.978 88.6028 143.02 89.31ZM158.92 136.31L128.01 152.99L97.07 136.26V95.52H158.93V136.31H158.92ZM158.92 152.03C158.917 154.666 158.198 157.252 156.84 159.512C155.482 161.771 153.536 163.62 151.21 164.86L150.59 165.19L138.83 158.84L158.93 148.01V152.03H158.92ZM162.12 159.96C162.484 159.959 162.845 160.03 163.182 160.169C163.519 160.308 163.826 160.512 164.084 160.769C164.342 161.026 164.547 161.332 164.687 161.668C164.827 162.005 164.899 162.366 164.9 162.73C164.901 163.094 164.83 163.455 164.691 163.792C164.552 164.129 164.348 164.436 164.091 164.694C163.834 164.952 163.528 165.157 163.192 165.297C162.855 165.437 162.494 165.509 162.13 165.51C161.394 165.51 160.688 165.218 160.168 164.697C159.647 164.177 159.355 163.471 159.355 162.735C159.355 161.999 159.647 161.293 160.168 160.773C160.688 160.252 161.394 159.96 162.13 159.96H162.12ZM167.72 89.31C167.72 89.6738 167.648 90.034 167.509 90.37C167.37 90.7061 167.166 91.0115 166.909 91.2687C166.651 91.5259 166.346 91.7299 166.01 91.8691C165.674 92.0084 165.314 92.08 164.95 92.08C164.586 92.08 164.226 92.0084 163.89 91.8691C163.554 91.7299 163.249 91.5259 162.991 91.2687C162.734 91.0115 162.53 90.7061 162.391 90.37C162.252 90.034 162.18 89.6738 162.18 89.31C162.18 88.5753 162.472 87.8708 162.991 87.3513C163.511 86.8318 164.215 86.54 164.95 86.54C165.685 86.54 166.389 86.8318 166.909 87.3513C167.428 87.8708 167.72 88.5753 167.72 89.31ZM167.72 108.56C167.743 108.938 167.688 109.318 167.559 109.674C167.429 110.03 167.229 110.357 166.969 110.633C166.709 110.909 166.395 111.128 166.047 111.279C165.699 111.429 165.324 111.507 164.945 111.507C164.566 111.507 164.191 111.429 163.843 111.279C163.495 111.128 163.181 110.909 162.921 110.633C162.661 110.357 162.461 110.03 162.331 109.674C162.202 109.318 162.147 108.938 162.17 108.56C162.212 107.853 162.523 107.189 163.039 106.703C163.555 106.217 164.237 105.947 164.945 105.947C165.653 105.947 166.335 106.217 166.851 106.703C167.367 107.189 167.678 107.853 167.72 108.56ZM167.72 127.29C167.72 127.654 167.648 128.014 167.509 128.35C167.37 128.686 167.166 128.991 166.909 129.249C166.651 129.506 166.346 129.71 166.01 129.849C165.674 129.988 165.314 130.06 164.95 130.06C164.586 130.06 164.226 129.988 163.89 129.849C163.554 129.71 163.249 129.506 162.991 129.249C162.734 128.991 162.53 128.686 162.391 128.35C162.252 128.014 162.18 127.654 162.18 127.29C162.18 126.555 162.472 125.851 162.991 125.331C163.511 124.812 164.215 124.52 164.95 124.52C165.685 124.52 166.389 124.812 166.909 125.331C167.428 125.851 167.72 126.555 167.72 127.29ZM167.72 146.01C167.743 146.388 167.688 146.768 167.559 147.124C167.429 147.48 167.229 147.807 166.969 148.083C166.709 148.359 166.395 148.578 166.047 148.729C165.699 148.879 165.324 148.957 164.945 148.957C164.566 148.957 164.191 148.879 163.843 148.729C163.495 148.578 163.181 148.359 162.921 148.083C162.661 147.807 162.461 147.48 162.331 147.124C162.202 146.768 162.147 146.388 162.17 146.01C162.212 145.303 162.523 144.639 163.039 144.153C163.555 143.667 164.237 143.397 164.945 143.397C165.653 143.397 166.335 143.667 166.851 144.153C167.367 144.639 167.678 145.303 167.72 146.01ZM128 142.83L129.16 143.66H136.86L138.26 142.93V133.19L137.49 132.43V142.31L135.59 141.38C134.572 140.84 133.442 140.542 132.29 140.51C131.24 140.51 130.16 140.79 128.96 141.38L127.99 141.86L127.01 141.38C125.986 140.837 124.849 140.539 123.69 140.51C122.65 140.51 121.56 140.79 120.37 141.38L118.47 142.31V132.33L117.75 133.18V142.93L119.15 143.66H126.85L128 142.83ZM134.73 125.56L140.67 130.03C141.07 126.87 141.45 123.74 141.81 120.78L133.34 114.4C133.77 117.95 134.24 121.71 134.72 125.47L134.73 125.56ZM143.13 114.56C142.41 120.76 141.66 126.96 140.86 133.15C142.767 134.1 144.869 134.595 147 134.595C149.131 134.595 151.233 134.1 153.14 133.15C152.34 126.95 151.59 120.76 150.86 114.56C148.297 114.188 145.693 114.188 143.13 114.56ZM146.4 120.11C146.4 119.67 146.54 119.23 146.78 118.86L147 118.54L147.22 118.86C147.47 119.23 147.6 119.66 147.6 120.11V123.13H146.4V120.11ZM150.87 113.93C151.25 113.39 151.62 112.85 152.02 112.33C148.733 111.439 145.267 111.439 141.98 112.33C142.38 112.86 142.76 113.39 143.13 113.93C145.71 113.53 148.29 113.53 150.87 113.93ZM147.3 110.99C148.88 111.02 150.48 111.26 152.02 111.72V108.68C151.45 108.46 150.87 108.28 150.28 108.12L149.69 109.27C149.29 109.2 148.9 109.14 148.49 109.1L147.89 107.74C147.29 107.71 146.7 107.71 146.09 107.74L145.49 109.1C145.09 109.14 144.69 109.2 144.3 109.27L143.71 108.12C143.11 108.27 142.55 108.46 141.98 108.68V111.72C143.706 111.208 145.5 110.965 147.3 111V110.99ZM142.2 117.76L141.14 116.96L140.87 117.64L139.87 116.9L139.48 115.72L138.5 114.98L138.1 115.56L137.11 114.82L136.71 113.65L135.73 112.9L135.33 113.49L134.35 112.74L133.95 111.57L132.9 110.77L133.24 113.6L141.88 120.12L142.19 117.76H142.2ZM131.86 106.34C132.24 105.79 132.61 105.26 133.01 104.74C129.71 103.84 126.29 103.84 122.98 104.74C123.38 105.26 123.75 105.8 124.13 106.34C126.7 105.94 129.29 105.94 131.86 106.34ZM127.69 103.4C129.47 103.37 131.29 103.6 133.01 104.12V101.08C132.44 100.86 131.86 100.68 131.27 100.52L130.68 101.67C130.28 101.6 129.89 101.54 129.49 101.5L128.89 100.14C128.29 100.11 127.69 100.11 127.09 100.14L126.49 101.5C126.09 101.54 125.69 101.6 125.29 101.67L124.7 100.52C124.11 100.67 123.54 100.86 122.97 101.08V104.12C124.503 103.664 126.091 103.422 127.69 103.4ZM123.09 110.75L122.04 111.55L121.64 112.73L120.66 113.47L120.26 112.89L119.27 113.63L118.87 114.81L117.89 115.55L117.49 114.97L116.51 115.71L116.11 116.88L115.12 117.63L114.85 116.95L113.8 117.75L114.1 120.09L122.75 113.57L123.09 110.75ZM112.87 113.93C113.24 113.39 113.62 112.86 114.02 112.33C110.733 111.439 107.267 111.439 103.98 112.33C104.377 112.855 104.764 113.389 105.14 113.93C107.71 113.53 110.29 113.53 112.87 113.93ZM108.7 110.99C110.48 110.97 112.29 111.2 114.01 111.72V108.68C113.44 108.46 112.87 108.28 112.28 108.12L111.68 109.27C111.29 109.2 110.9 109.14 110.5 109.1L109.9 107.74C109.29 107.71 108.7 107.71 108.1 107.74L107.5 109.1C107.09 109.14 106.7 109.2 106.3 109.27L105.7 108.12C105.12 108.27 104.54 108.46 103.97 108.68V111.72C105.52 111.26 107.12 111.02 108.7 111V110.99ZM105.13 114.56C104.41 120.76 103.66 126.96 102.86 133.15C104.766 134.099 106.866 134.592 108.995 134.592C111.124 134.592 113.224 134.099 115.13 133.15C114.33 126.95 113.59 120.76 112.86 114.56C110.297 114.188 107.693 114.188 105.13 114.56ZM108.4 120.11C108.4 119.67 108.53 119.23 108.78 118.86L109 118.54L109.22 118.86C109.47 119.23 109.6 119.66 109.6 120.11V123.13H108.4V120.11ZM115.33 130.03L121.27 125.56V125.47C121.77 121.71 122.23 117.95 122.65 114.4L114.19 120.78C114.55 123.75 114.93 126.88 115.33 130.03ZM127.29 140.79L127.59 140.94V130.19C126.389 129.547 125.052 129.197 123.69 129.17C122.34 129.17 121.01 129.54 119.49 130.35L119.13 130.53V141.25L120.08 140.79C121.192 140.204 122.424 139.882 123.68 139.85C124.83 139.85 126.01 140.15 127.29 140.79ZM132.27 129.17C131.02 129.17 129.77 129.5 128.37 130.19V140.93L128.67 140.79C129.782 140.204 131.014 139.882 132.27 139.85C133.42 139.85 134.6 140.15 135.88 140.78L136.83 141.25V130.53L136.48 130.34C135.198 129.609 133.755 129.207 132.28 129.17H132.27ZM128 119.8C128.883 120.334 129.614 121.087 130.122 121.985C130.63 122.884 130.898 123.898 130.9 124.93V125.86L131.73 126.48C132.55 126.24 133.35 125.92 134.13 125.54C133.33 119.36 132.59 113.15 131.86 106.96C129.297 106.585 126.693 106.585 124.13 106.96C123.39 113.16 122.65 119.36 121.85 125.54C122.63 125.93 123.43 126.24 124.25 126.48C124.6 126.22 124.75 126.12 125.08 125.86V124.93C125.085 123.896 125.357 122.881 125.868 121.983C126.38 121.084 127.114 120.332 128 119.8ZM128.6 115.53H127.4V112.52C127.4 112.07 127.53 111.63 127.78 111.27L128 110.95L128.22 111.27C128.46 111.63 128.6 112.07 128.6 112.52V115.53ZM203.18 142.85C203.11 143.17 202.96 143.41 202.7 143.57C202.45 143.73 202.16 143.77 201.86 143.72C201.715 143.696 201.576 143.643 201.452 143.564C201.327 143.485 201.22 143.382 201.137 143.26C201.054 143.139 200.996 143.002 200.968 142.857C200.939 142.713 200.94 142.564 200.97 142.42C200.993 142.273 201.047 142.132 201.128 142.007C201.208 141.881 201.314 141.774 201.437 141.691C201.561 141.609 201.701 141.552 201.848 141.526C201.995 141.5 202.145 141.505 202.29 141.54C202.59 141.6 202.84 141.75 203.01 142C203.18 142.25 203.24 142.53 203.18 142.85ZM193.52 157.83L194.36 155.83C194.57 155.34 194.87 155.03 195.26 154.87C195.66 154.71 196.06 154.72 196.47 154.9C196.93 155.1 197.23 155.38 197.37 155.77C197.51 156.15 197.47 156.59 197.27 157.08L196.43 159.06L193.52 157.83ZM203.52 157.62L204.38 155.59L198.75 157.27C198.92 156.76 199.01 156.27 198.97 155.79C198.944 155.238 198.756 154.707 198.428 154.262C198.101 153.817 197.649 153.479 197.13 153.29C196.59 153.05 196.05 152.98 195.52 153.05C194.99 153.13 194.5 153.35 194.05 153.71C193.61 154.07 193.25 154.56 192.99 155.18L191.44 158.85L201.24 163L201.92 161.39L197.77 159.63L197.94 159.22L203.52 157.62ZM195.54 173.16C195.249 173.638 194.862 174.05 194.404 174.371C193.946 174.692 193.426 174.915 192.878 175.026C192.329 175.137 191.764 175.133 191.217 175.015C190.67 174.897 190.154 174.667 189.7 174.34L184.22 170.68L185.19 169.22L190.66 172.88C191.09 173.17 191.53 173.32 191.96 173.35C192.4 173.38 192.81 173.3 193.19 173.1C193.57 172.9 193.89 172.62 194.15 172.23C194.41 171.83 194.56 171.43 194.59 171.01C194.62 170.59 194.54 170.19 194.34 169.79C194.14 169.41 193.84 169.07 193.41 168.79L187.92 165.12L188.9 163.67L194.4 167.35C194.866 167.648 195.268 168.037 195.58 168.494C195.892 168.951 196.108 169.467 196.215 170.009C196.323 170.552 196.319 171.111 196.205 171.653C196.091 172.194 195.868 172.707 195.55 173.16H195.54ZM188.3 182.49L180.88 174.85L180.01 175.7L181.73 183.26L174.23 181.31L173.35 182.15L180.76 189.79L182.02 188.57L177.27 183.68L182.65 185.08L183.53 184.24L182.29 178.82L187.04 183.71L188.3 182.49ZM173.3 195.24L167.27 186.47L168.71 185.48L174.75 194.25L173.31 195.24H173.3ZM163.47 201.08C162.811 201.413 162.075 201.566 161.338 201.524C160.6 201.482 159.887 201.246 159.27 200.84C158.646 200.417 158.149 199.833 157.83 199.15L154.94 193.22L156.52 192.45L159.4 198.37C159.62 198.84 159.91 199.19 160.28 199.44C160.64 199.68 161.04 199.82 161.47 199.84C161.9 199.87 162.32 199.77 162.74 199.57C163.138 199.403 163.481 199.126 163.729 198.772C163.976 198.418 164.119 198.001 164.14 197.57C164.16 197.13 164.06 196.69 163.84 196.23L160.95 190.29L162.52 189.52L165.42 195.47C165.68 195.963 165.836 196.504 165.878 197.059C165.92 197.615 165.848 198.173 165.665 198.699C165.482 199.225 165.193 199.708 164.815 200.118C164.437 200.527 163.98 200.855 163.47 201.08ZM149.04 204.25C148.6 204.7 148.03 205.01 147.33 205.19C146.81 205.32 146.32 205.35 145.84 205.27C145.37 205.204 144.919 205.039 144.517 204.786C144.115 204.532 143.772 204.196 143.51 203.8C143.23 203.39 143.01 202.91 142.88 202.37C142.69 201.64 142.68 200.97 142.85 200.34C143.002 199.713 143.329 199.143 143.793 198.695C144.257 198.247 144.838 197.94 145.47 197.81C145.956 197.682 146.462 197.651 146.96 197.72C147.43 197.79 147.86 197.95 148.26 198.2C148.66 198.45 149 198.78 149.29 199.18C149.57 199.58 149.78 200.06 149.92 200.6C150.105 201.291 150.105 202.019 149.92 202.71L147.62 201.34L146.8 202.71L149.16 204.11C149.13 204.15 149.09 204.21 149.04 204.25ZM153.44 204.8L151.43 203.6C151.874 202.511 151.955 201.308 151.66 200.17C151.306 198.757 150.407 197.542 149.16 196.79C148.237 196.234 147.17 195.967 146.094 196.022C145.018 196.077 143.983 196.452 143.122 197.098C142.261 197.745 141.612 198.634 141.259 199.651C140.906 200.669 140.864 201.769 141.14 202.81C141.4 203.854 141.96 204.798 142.751 205.527C143.541 206.256 144.529 206.737 145.59 206.91C146.523 207.058 147.48 206.956 148.361 206.616C149.243 206.275 150.019 205.707 150.61 204.97L152.61 206.17L153.44 204.8ZM136.12 208.77L136.03 207.17L130.63 207.45L130.47 204.38L135.37 204.13L135.29 202.59L130.39 202.85L130.25 200.01L135.58 199.73L135.5 198.13L128.42 198.5L128.97 209.13L136.12 208.77ZM118.31 208.64C117.57 208.574 116.856 208.33 116.23 207.93C115.661 207.528 115.184 207.01 114.83 206.41L116.14 205.38C116.38 205.84 116.69 206.21 117.06 206.49C117.44 206.78 117.94 206.96 118.56 207.03C119.14 207.1 119.62 207.03 120 206.83C120.38 206.63 120.6 206.33 120.64 205.9C120.69 205.55 120.63 205.25 120.47 205C120.304 204.747 120.086 204.532 119.83 204.37C119.55 204.19 119.23 204.02 118.89 203.87C118.55 203.71 118.21 203.53 117.86 203.34C117.52 203.15 117.22 202.94 116.96 202.67C116.651 202.377 116.422 202.01 116.293 201.605C116.163 201.199 116.138 200.768 116.22 200.35C116.269 199.791 116.489 199.26 116.851 198.831C117.212 198.401 117.697 198.094 118.24 197.95C118.821 197.78 119.431 197.736 120.03 197.82C120.638 197.886 121.224 198.084 121.747 198.4C122.271 198.716 122.719 199.143 123.06 199.65L121.74 200.68C121.513 200.34 121.225 200.045 120.89 199.81C120.59 199.61 120.22 199.48 119.79 199.43C119.27 199.36 118.85 199.43 118.52 199.6C118.2 199.77 118.02 200.05 117.97 200.43C117.93 200.76 117.99 201.03 118.15 201.24C118.31 201.46 118.53 201.66 118.81 201.83C119.09 202 119.41 202.16 119.75 202.33C120.09 202.49 120.43 202.67 120.77 202.87C121.11 203.07 121.41 203.29 121.68 203.57C121.95 203.84 122.15 204.17 122.28 204.57C122.42 204.96 122.46 205.44 122.39 206C122.357 206.429 122.225 206.844 122.005 207.214C121.784 207.583 121.482 207.897 121.12 208.13C120.39 208.6 119.45 208.78 118.31 208.63V208.64ZM103.55 194.16L97.21 198.64L96.16 190.94L95.04 190.46L90.8 200.22L92.4 200.92L95.12 194.67L95.88 200.17L96.99 200.66L101.53 197.46L98.82 203.71L100.42 204.41L104.67 194.65L103.55 194.16ZM89.75 189.15L90.67 187.84L84.87 183.77L78.76 192.49L84.63 196.6L85.54 195.3L81.11 192.19L82.87 189.67L86.87 192.48L87.76 191.23L83.75 188.42L85.38 186.09L89.75 189.15ZM70.56 185.44C69.799 184.687 69.2859 183.719 69.0893 182.667C68.8928 181.614 69.0221 180.527 69.46 179.55C69.76 178.89 70.18 178.3 70.72 177.77C71.2378 177.256 71.8487 176.845 72.52 176.56C73.1631 176.285 73.8554 176.143 74.555 176.143C75.2546 176.143 75.9469 176.285 76.59 176.56C77.25 176.82 77.85 177.23 78.39 177.78C78.99 178.4 79.41 179.03 79.65 179.68C79.88 180.33 80 180.99 79.99 181.68L78.31 181.66C78.34 181.2 78.26 180.74 78.09 180.28C77.91 179.82 77.61 179.38 77.19 178.95C76.8488 178.594 76.4411 178.309 75.99 178.11C75.557 177.925 75.0894 177.834 74.6185 177.844C74.1476 177.855 73.6844 177.966 73.26 178.17C72.2979 178.607 71.5194 179.368 71.06 180.32C70.8452 180.74 70.7242 181.202 70.7052 181.673C70.6862 182.144 70.7697 182.614 70.95 183.05C71.12 183.49 71.39 183.89 71.76 184.27C72.21 184.73 72.66 185.06 73.13 185.24C73.58 185.43 74.05 185.51 74.51 185.49L74.49 187.17C73.7505 187.172 73.0188 187.019 72.342 186.721C71.6651 186.423 71.0581 185.987 70.56 185.44ZM60.16 172.64C59.7369 172.013 59.4884 171.285 59.44 170.53C59.3861 169.792 59.5356 169.052 59.8724 168.393C60.2091 167.734 60.7202 167.179 61.35 166.79L66.87 163.17L67.83 164.64L62.33 168.25C61.89 168.53 61.58 168.87 61.39 169.26C61.19 169.66 61.1 170.06 61.14 170.49C61.17 170.92 61.31 171.32 61.57 171.72C61.84 172.12 62.15 172.41 62.52 172.6C62.9 172.8 63.3 172.87 63.74 172.84C64.17 172.81 64.6 172.65 65.02 172.37L70.54 168.75L71.5 170.21L65.97 173.84C65.5158 174.161 65.0005 174.386 64.4559 174.499C63.9114 174.613 63.3493 174.614 62.8045 174.501C62.2597 174.389 61.7438 174.165 61.2889 173.845C60.834 173.525 60.4498 173.115 60.16 172.64ZM62.79 154.62L62.09 153.01L52.33 157.22L55 163.44L56.47 162.81L54.49 158.2L62.79 154.62ZM52.84 142.87C52.78 142.56 52.84 142.27 53.01 142.03C53.19 141.78 53.43 141.63 53.73 141.57C53.8748 141.537 54.0248 141.533 54.171 141.56C54.3171 141.586 54.4563 141.643 54.5799 141.725C54.7036 141.808 54.809 141.914 54.8899 142.039C54.9707 142.164 55.0252 142.304 55.05 142.45C55.0834 142.594 55.0868 142.742 55.0599 142.887C55.033 143.032 54.9765 143.17 54.8939 143.292C54.8113 143.414 54.7043 143.518 54.5798 143.597C54.4552 143.675 54.3157 143.728 54.17 143.75C53.87 143.81 53.57 143.76 53.32 143.6C53.1947 143.52 53.0873 143.414 53.0047 143.29C52.9221 143.166 52.866 143.027 52.84 142.88V142.87ZM207.12 126.72C206.83 127.02 206.46 127.18 206.02 127.2C205.806 127.222 205.59 127.197 205.387 127.128C205.183 127.059 204.997 126.947 204.84 126.8C204.54 126.5 204.39 126.09 204.37 125.55L204.3 123.41L207.46 123.29L207.53 125.45C207.55 126 207.42 126.42 207.13 126.72H207.12ZM208.92 121.5L198.28 121.87L198.34 123.62L202.85 123.46L202.87 123.92L198.48 127.72L198.56 129.92L202.96 126.02C203.01 126.55 203.16 127.03 203.38 127.45C203.637 127.941 204.034 128.344 204.519 128.611C205.005 128.878 205.558 128.996 206.11 128.95C206.661 128.94 207.197 128.775 207.659 128.474C208.12 128.173 208.488 127.749 208.72 127.25C208.97 126.75 209.08 126.15 209.06 125.48L208.92 121.5ZM198.07 111.16L201.07 110.5L202.11 115.28L203.61 114.96L202.56 110.17L205.34 109.57L206.48 114.78L208.04 114.44L206.54 107.52L196.14 109.79L197.66 116.79L199.22 116.44L198.07 111.16ZM203.13 101.68L204.61 101.07L201.29 93.05L199.81 93.65L201.14 96.86L192.78 100.32L193.45 101.94L201.81 98.48L203.13 101.68ZM190.63 86.5L193.25 90.64L194.55 89.82L191.93 85.68L194.33 84.16L197.18 88.67L198.53 87.82L194.75 81.83L185.75 87.51L189.57 93.57L190.92 92.72L188.03 88.14L190.63 86.5ZM189.42 74.96L184.68 75.66L185.69 70.93L184.29 69.41L182.99 75.64L176.35 76.5L177.69 77.95L182.92 77.25L181.68 82.27L183.07 83.77L184.59 77.26L190.75 76.4L189.42 74.96ZM175.44 69.66L176.35 68.42L172.42 65.51L174.12 63.21L178.4 66.39L179.35 65.11L173.66 60.9L167.32 69.45L173.08 73.71L174.03 72.43L169.68 69.21L171.51 66.74L175.44 69.65V69.66ZM161.24 55.7L161.84 54.22L155.46 51.64L151.47 61.51L153.1 62.17L154.8 57.94L159.32 59.76L159.92 58.28L155.4 56.46L156.48 53.78L161.24 55.7ZM141.68 57.35C142.38 57.49 143.04 57.45 143.63 57.23C144.219 57.0182 144.738 56.6479 145.13 56.16C145.55 55.66 145.83 55.03 145.97 54.3C146.08 53.75 146.09 53.23 146 52.75C145.923 52.2779 145.753 51.8257 145.5 51.42C145.246 51.0276 144.912 50.6936 144.52 50.44C144.12 50.17 143.66 49.99 143.12 49.89C142.495 49.7469 141.842 49.7805 141.234 49.9871C140.627 50.1937 140.089 50.5652 139.68 51.06C139.28 51.56 138.99 52.17 138.85 52.91C138.75 53.46 138.74 53.98 138.82 54.48C138.9 54.98 139.07 55.42 139.32 55.81C139.57 56.21 139.89 56.53 140.29 56.8C140.7 57.06 141.16 57.25 141.68 57.35ZM141.38 59C140.675 58.8678 140.004 58.594 139.407 58.1953C138.811 57.7965 138.302 57.2811 137.91 56.68C137.509 56.0812 137.231 55.4086 137.091 54.7013C136.952 53.994 136.955 53.2662 137.1 52.56C137.226 51.8537 137.493 51.18 137.885 50.5788C138.277 49.9775 138.785 49.4611 139.38 49.06C139.969 48.6546 140.635 48.3729 141.336 48.2319C142.037 48.091 142.76 48.0937 143.46 48.24C144.167 48.3687 144.84 48.638 145.44 49.032C146.041 49.426 146.556 49.9367 146.955 50.5337C147.354 51.1306 147.63 51.8018 147.764 52.5072C147.899 53.2126 147.891 53.9379 147.74 54.64C147.54 55.6943 147.035 56.6669 146.289 57.4381C145.543 58.2092 144.587 58.7452 143.54 58.98C142.84 59.13 142.13 59.14 141.39 59H141.38ZM127.06 46.77L125.07 46.91L122.62 51.44L119.55 47.29L117.53 47.43L121.85 53.16L122.18 57.78L123.92 57.66L123.59 52.97L127.06 46.77ZM113.69 49.67L113.31 48.12L104.87 50.16L105.25 51.71L108.62 50.9L110.74 59.7L112.44 59.28L110.32 50.48L113.69 49.68V49.67ZM101.83 62.61L97.98 52.68L99.61 52.05L103.46 61.98L101.83 62.61ZM93.52 66.76C92.78 67.17 92.08 67.39 91.42 67.41C90.7225 67.423 90.0304 67.2866 89.39 67.01L89.85 65.41C90.31 65.63 90.78 65.75 91.25 65.76C91.72 65.76 92.23 65.62 92.78 65.31C93.29 65.03 93.64 64.69 93.83 64.31C94.01 63.92 94 63.55 93.79 63.17C93.62 62.87 93.39 62.66 93.13 62.55C92.87 62.45 92.57 62.4 92.23 62.42C91.9 62.44 91.55 62.49 91.17 62.56C90.8 62.63 90.43 62.7 90.04 62.74C89.6649 62.7886 89.2851 62.7886 88.91 62.74C88.53 62.6924 88.1667 62.5553 87.85 62.34C87.4708 62.0665 87.1622 61.7066 86.95 61.29C86.6612 60.8105 86.5273 60.2536 86.5667 59.6952C86.6061 59.1368 86.8167 58.6042 87.17 58.17C87.52 57.71 87.97 57.32 88.54 57C89.0683 56.6934 89.6578 56.5076 90.2664 56.4557C90.875 56.4038 91.4875 56.4873 92.06 56.7L91.61 58.31C91.226 58.1689 90.819 58.101 90.41 58.11C90.04 58.12 89.67 58.23 89.3 58.44C88.906 58.6294 88.5808 58.937 88.37 59.32C88.22 59.66 88.23 59.99 88.42 60.32C88.58 60.61 88.79 60.79 89.04 60.87C89.3 60.96 89.59 60.99 89.92 60.96C90.25 60.93 90.6 60.88 90.97 60.81C91.34 60.74 91.72 60.68 92.11 60.64C92.4928 60.5959 92.88 60.606 93.26 60.67C93.64 60.73 94 60.87 94.34 61.12C94.68 61.36 94.99 61.72 95.27 62.22C95.73 63.05 95.81 63.87 95.49 64.69C95.0991 65.5915 94.401 66.325 93.52 66.76ZM76.3 67.48L77.98 66.12C78.4 65.78 78.82 65.63 79.24 65.68C79.66 65.73 80.01 65.93 80.29 66.28C80.6 66.66 80.73 67.06 80.67 67.46C80.62 67.86 80.38 68.24 79.97 68.57L78.3 69.93L76.3 67.48ZM85.24 71.98L86.94 70.58L81.19 69.42C81.59 69.06 81.88 68.66 82.08 68.23C82.31 67.71 82.38 67.19 82.32 66.66C82.2312 66.1015 81.9888 65.5787 81.62 65.15C81.2788 64.7168 80.8259 64.3848 80.31 64.19C79.7956 64.0121 79.2425 63.9776 78.71 64.09C78.1087 64.2171 77.5485 64.4921 77.08 64.89L74 67.4L80.72 75.66L82.08 74.56L79.23 71.06L79.58 70.76L85.25 71.98H85.24ZM76.64 79.63L75.42 78.6L71.93 82.74L69.58 80.76L72.74 77.02L71.56 76.03L68.41 79.77L66.23 77.94L69.67 73.86L68.45 72.83L63.89 78.25L72.03 85.11L76.64 79.63ZM60.61 82.65L59.67 84.26L64.82 90.83L56.59 89.51L55.62 91.15L66.98 92.83L67.6 91.78L60.61 82.65ZM62.67 101.71L52.84 97.62L53.51 96.02L63.34 100.1L62.67 101.72V101.71ZM60.62 107.1L50.28 104.56L49.87 106.26L57 108.01L48.53 111.72L48.24 112.91L58.58 115.44L59 113.74L51.86 111.99L60.34 108.27L60.62 107.1ZM57.8 124.73C57.7934 125.289 57.6722 125.841 57.4439 126.351C57.2157 126.862 56.8851 127.32 56.4728 127.698C56.0604 128.076 55.575 128.365 55.0464 128.547C54.5179 128.73 53.9576 128.802 53.4 128.76L46.81 128.44L46.9 126.69L53.47 127C53.99 127.03 54.44 126.94 54.83 126.74C55.23 126.54 55.53 126.26 55.76 125.89C55.98 125.53 56.1 125.11 56.13 124.65C56.1583 124.208 56.0686 123.766 55.87 123.37C55.68 123 55.4 122.69 55.03 122.47C54.634 122.23 54.1829 122.095 53.72 122.08L47.12 121.77L47.21 120.03L53.81 120.33C54.5428 120.341 55.2588 120.552 55.8808 120.939C56.5028 121.327 57.0073 121.877 57.34 122.53C57.69 123.19 57.84 123.92 57.8 124.73Z" fill="#003C3C"/>
</svg>
